<?xml version="1.0" encoding="utf-8"?>
<!-- Generator: Adobe Illustrator 14.0.0, SVG Export Plug-In . SVG Version: 6.00 Build 43363)  -->
<!DOCTYPE svg PUBLIC "-//W3C//DTD SVG 1.1//EN" "http://www.w3.org/Graphics/SVG/1.1/DTD/svg11.dtd">
<svg version="1.1" id="Layer_1" xmlns="http://www.w3.org/2000/svg" xmlns:xlink="http://www.w3.org/1999/xlink" x="0px" y="0px"
	 width="400px" height="400px" viewBox="0 0 400 400" enable-background="new 0 0 400 400" xml:space="preserve">
<g>
	<g>
		<polygon fill="#FFFFFF" points="215.003,83.55 184.998,81.178 184.998,0 215.003,0 		"/>
	</g>
	<g>
		<path fill="#FFFFFF" d="M225.005,123.654c-0.408,0-0.794-0.022-1.224-0.043l-49.988-4.057
			c-8.263-0.644-14.402-7.877-13.736-16.141c0.666-8.242,7.663-14.295,16.163-13.726l50.009,4.024
			c8.241,0.665,14.38,7.898,13.713,16.141C239.32,117.709,232.753,123.654,225.005,123.654z"/>
	</g>
	<g>
		<path fill="#FFFFFF" d="M225.005,160.689c-0.408,0-0.794-0.043-1.224-0.087l-49.988-4.034c-8.263-0.644-14.402-7.855-13.736-16.13
			c0.666-8.285,7.663-14.187,16.163-13.736l50.009,4.035c8.241,0.644,14.38,7.877,13.713,16.129
			C239.32,154.723,232.753,160.689,225.005,160.689z"/>
	</g>
	<g>
		<path fill="#FFFFFF" d="M225.005,198.507c-0.408,0-0.794,0-1.224-0.042l-49.988-4.036c-8.263-0.644-14.402-7.899-13.736-16.142
			c0.666-8.242,7.663-14.207,16.163-13.736l50.009,4.036c8.241,0.644,14.38,7.898,13.713,16.14
			C239.32,192.584,232.753,198.507,225.005,198.507z"/>
	</g>
	<path fill="#FFFFFF" d="M233.31,207.692c-0.492,0-0.965-0.042-1.459-0.042l-60.633-4.937c-22.021,23.996-53.98,63.831-53.98,93.752
		c0,45.63,37.153,82.805,82.762,82.805c45.631,0,82.763-37.175,82.763-82.805C282.763,268.605,254.924,232.032,233.31,207.692z
		 M200,352.699c-30.971,0-56.169-25.198-56.169-56.233c0-21.035,31.422-60.312,56.169-85.724
		c24.748,25.412,56.192,64.688,56.192,85.724C256.191,327.501,230.971,352.699,200,352.699z"/>
	<path fill="#FFFFFF" d="M173.622,79.987V58.868l-33.269-38.333l-19.595,17.021L160.98,83.55
		C160.98,83.55,164.8,79.751,173.622,79.987z"/>
</g>
</svg>
